<mxfile host="app.diagrams.net" modified="2023-01-31T07:09:24.083Z" agent="5.0 (Macintosh; Intel Mac OS X 10_15_7) AppleWebKit/537.36 (KHTML, like Gecko) Chrome/109.0.0.0 Safari/537.36" etag="9NgNB8luG6rPmxZATND7" version="20.8.13" type="github">
  <diagram name="第 1 页" id="KFor1kBrLXcWu-fSKk8w">
    <mxGraphModel dx="1496" dy="989" grid="1" gridSize="10" guides="1" tooltips="1" connect="1" arrows="1" fold="1" page="1" pageScale="1" pageWidth="827" pageHeight="1169" math="0" shadow="0">
      <root>
        <mxCell id="0" />
        <mxCell id="1" parent="0" />
        <mxCell id="xkHoxEHxuW4sq9BMO9kq-3" value="" style="edgeStyle=orthogonalEdgeStyle;rounded=0;orthogonalLoop=1;jettySize=auto;html=1;" edge="1" parent="1" source="xkHoxEHxuW4sq9BMO9kq-1" target="xkHoxEHxuW4sq9BMO9kq-2">
          <mxGeometry relative="1" as="geometry" />
        </mxCell>
        <mxCell id="xkHoxEHxuW4sq9BMO9kq-4" value="比较" style="edgeLabel;html=1;align=center;verticalAlign=middle;resizable=0;points=[];" vertex="1" connectable="0" parent="xkHoxEHxuW4sq9BMO9kq-3">
          <mxGeometry x="-0.0294" y="-1" relative="1" as="geometry">
            <mxPoint as="offset" />
          </mxGeometry>
        </mxCell>
        <mxCell id="xkHoxEHxuW4sq9BMO9kq-1" value="query" style="rounded=1;whiteSpace=wrap;html=1;" vertex="1" parent="1">
          <mxGeometry x="354" y="60" width="120" height="60" as="geometry" />
        </mxCell>
        <mxCell id="xkHoxEHxuW4sq9BMO9kq-7" style="edgeStyle=orthogonalEdgeStyle;rounded=0;orthogonalLoop=1;jettySize=auto;html=1;entryX=0.5;entryY=0;entryDx=0;entryDy=0;" edge="1" parent="1" source="xkHoxEHxuW4sq9BMO9kq-2" target="xkHoxEHxuW4sq9BMO9kq-6">
          <mxGeometry relative="1" as="geometry" />
        </mxCell>
        <mxCell id="xkHoxEHxuW4sq9BMO9kq-16" style="edgeStyle=orthogonalEdgeStyle;rounded=0;orthogonalLoop=1;jettySize=auto;html=1;" edge="1" parent="1" source="xkHoxEHxuW4sq9BMO9kq-2" target="xkHoxEHxuW4sq9BMO9kq-5">
          <mxGeometry relative="1" as="geometry" />
        </mxCell>
        <mxCell id="xkHoxEHxuW4sq9BMO9kq-2" value="result" style="rounded=1;whiteSpace=wrap;html=1;" vertex="1" parent="1">
          <mxGeometry x="354" y="180" width="120" height="60" as="geometry" />
        </mxCell>
        <mxCell id="xkHoxEHxuW4sq9BMO9kq-20" style="edgeStyle=orthogonalEdgeStyle;rounded=0;orthogonalLoop=1;jettySize=auto;html=1;entryX=0.5;entryY=0;entryDx=0;entryDy=0;" edge="1" parent="1" source="xkHoxEHxuW4sq9BMO9kq-9" target="xkHoxEHxuW4sq9BMO9kq-13">
          <mxGeometry relative="1" as="geometry" />
        </mxCell>
        <mxCell id="xkHoxEHxuW4sq9BMO9kq-9" value="组合result得出最后结论" style="rounded=1;whiteSpace=wrap;html=1;" vertex="1" parent="1">
          <mxGeometry x="344" y="420" width="130" height="60" as="geometry" />
        </mxCell>
        <mxCell id="xkHoxEHxuW4sq9BMO9kq-13" value="" style="shape=image;verticalLabelPosition=bottom;labelBackgroundColor=default;verticalAlign=top;aspect=fixed;imageAspect=0;image=data:image/png,iVBORw0KGgoAAAANSUhEUgAAAywAAAA0CAYAAABo47z2AAAACXBIWXMAABYlAAAWJQFJUiTwAAAgAElEQVR4nO3dd5zcdZ348de3TC9bspvsprdNgwDJ0hFQUfQHAiKK/n5nQUVFUUEUwXbIT+E86yE/PWyn/NSz4J2HnvcDT0EDRIFAkFSSkF5Iskl2p8+3/v6Y2SmZmWQ2O7M7Wd7PxyOPR3bn22b2PZ9elN5ps1yEEEIIIYQQogWp4/0AQgghhBBCCFGLVFiEEEIIIYQQLUsqLEIIIYQQQoiWJRUWIYQQQgghRMuSCosQQgghhBCiZUmFRQghhBBCCNGypMIihBBCCCGEaFlSYRFCCCGEEEK0LKmwCCGEEEIIIVqWVFiEEEIIIYQQLUsqLEIIIYQQQoiWVV+FxauitnlBLx6u+jTUNi+KJnUeIYQQQgghRHVqQEdt8+Iqxd9pQR015KnrfL2eg8IPXoztUVCTNsmr/oze4cPzwAW5C2xPEb/+ryN/ciGEEA2nhjx4e4Oo3T5IWGR3JbAHjabdT2v34uuLVPze2JLAOpJt2n2FAIl3MTYkzkbH3xdB+eezAPCsGiR2+7NEXzcV89ZFAPh+tYfB+1445jXqqrDYqgq4KMM9LHqxemT7lOonCSGEGBOqTyP07nm4V0wrpMlu/jUvoN29gcQj+5pyb//PX4FTJScJbUsy9L4nm3JP8fIm8S7GgsRZA3m1wn/VQK4u4QZL3mDg+KO16qqwKFkbN6iipG0A7MMGwx046pBV59NCYNkkApdPwy59rp1Jhn704kl1jeB5k1FuX4S2YoDY19bXfV9xbMHTO/FcNR13QRSz24fqumh70ygbYqR/vBXjpXTFOZFX9qJc2IWiVFacFduFlIWbtLBfiBNf8RKKW3FYU7Rd34d1xVTUb20m/vu9Y3PTFqcGdKI39OFGSrp/sw6pn27D3J0cs+eYSHE2LHrPmWTnh2q+rl87E5qUsaoJC6e9Miux9ZN3uPB4x2r41b2o504qNhLmuYaN8YtdZLbFqp7nKhC5ZibqgiiKruK6Lu7aIeK/3ll2XNvfzUWbEy7LA13DJv2T7YX3F37rbLSF0ar3UY5ksTbEMdYeqfp9aTaJ98Ya73hvVRJnjWMPZAoVDudwrmfKGSj2FLmHzONeo64Ki5qysINelESucuLaDqoFjg764ePfZJh222LSXd6jftuF9sud2Kn6rtMK1/Bf0kM6pOO+ajJIhaUh2t7fh3HtDIodrC4O4MwMwMwAnkum4P2H9ST+/FLZec5NfTiRusKYSHYxzl3rSK080MhHr8p6XQ9OSEO9tBekwgKA/4xOspf3Vv4+pGP+/XNj8gwTLc4AAsu6CpmqknLQfrgVa1McNayjzAigdvhI/lfzYjD+5hWoXg01lPt8wv/UT3aav2n3GwvjHavOLQux/dULJr4zOsi87fGqrwWXdGDfMB+79JcXdxM+bBRi2t8XwXj37KrnBxwF88trUYM69vvmll/naFeBBgT3pbFufW7MKi4S74033vHeiiTOGssaMAoVDvVwrqLiDGSKrx/KVDmrXF05sB6zsLu8qEMl4/WyNugajGAsnasVWye9v8n9oZ3tSdJ1VjRa5RrDrVKqJsPhGiH6peUYZ7bnfrAVPM8PwtojqAEPnNFOdn4o1zX6uSVEewLEfrGtcK72o+1or+jGnh8qFCi962MoLtiqgt2uo3QHcPT88MU7lhL4yNOkN1VvoWwUVVFwAHwnZ2tIM6SeHiDykx2oUQ9a1Ev6lV0AKN6x+YwmYpwBeF45meGUy71jDfHVh4ovjtHIAcewcYx8D7x5zGLuSWG8Y9Xzq11Yr+lB0RXsDh9oxS47o8tL4JQO0uuOVJyX3jBIdNUg1jQfbm+g8Hv3loUoj+/HtV3SW+K0rR7CnuaHkI4Tyg3V0Lcnsf6Yq9Q4KQvfysMYy9tx8xUnZV8ar6NgtnsK5wC4vQG0+88n/NX1JP67Oa3NpSTeG2+8470VSZw1lms7YCuguTj53hTzYKYwWouDDaqw5ColQezS4V9JC0IaDIx80pFmugx9c+OIz2vFazSD6tUILOvEPpwhszk+Jvd0FfDPiqDPi+DGDLKbY02dUDYs2N+FmS9EalkX65PPEls3WHZM9IoZmDf1AWC+Zy767/cWJp3FHtwJD+4kcsMCnDdPB2Do5mfAKRmT41WJ3rwE89LJoLl4P7yA9EdXNf29NdN4xAhelcC8CPqMENaeNNnNsUJiWhfLIZ4fdqn3+PHkM8WxMJHjzO0o9hannjvECTWj5P+2SrsPxa9i70qT2RkHw2nYc9ZDDeh4pwfQeoO4aRtjewLrYAZFU/EvbiOzYSiX8R3PSRyrQG54cv7+kV9dhNWuow0Y2PmRAZ53zCF9e2WFBccldvuzAIQeenVhDLwT0oi+dz5D392M4kLs1mcACF/cA59bAkDsfU+WDWUc/PvnaLu+D+NtMwDIfOBpUqliGSBwSgeeWxdjTveD5uJ+fDH6qsNNnxDciHh3FfDPiaBN8qJGvDgHs2RfjNc9SqNRFE3BMy2IpzcIXhVzRwJjdwocF//8NoyDaZyh4+fDo86/xzneW5Gkq5VGG2fD00vcfBphlUwvsQaOn27UN+l+Qwz6O3BLMnjPliTZyT6M9UN1P+zJTA3q+GaFwKNiT/YBucUIAqd1VB6csUltjlWOY1cVwv96QSHTyV1Ewb3haTLbYrT93VzM10/B7Q3gAAoQNl3MD64iuz1XKA3/n7OwF0UK5yp3rikMPVGDOoGfnY8TKv5Zh1d2q8UzPUTwjlMx5uS6PodD1gsoGQf9Oy8S++2uOj+lkXNvW1z4v/P3a8gcVYgEiP12F5FpAaw3TwfNJfyxxQyOpJvacIh9eS2hCy7GCWnY8ypX3mgET4cXfWoINLDzLVNa1FM1RqzDRvWxwaOMES2o4y+JAdWC9JtW4OQLGsH+LtQvLsX2FJPfwLODHP7kszXfV/C8yWgfX4SVH087XGTxQa4Q9cV1pNdWKTy1kIkUZwDh10xFfV0vrk7ZfaJf7688+I8HiP9n9e9w6Owu3I/0FVrj3fw/BQgAnt8fIHHPBpxsc1v3vDPD+G9ZiHlqG1BMhzyALx9wjg4dfxrg8Befr3mdiRCrpQKL2wrvxf3WZpT3z8XtDWAu60AN6oXvdT2Ma2bieWAH5pHGNESl1x0hfd1K2m5ejPGGXhwdgrcuJvbpxg8halS8e6aFCN62GGNhW66SBYVhb17AuylB+s51GPubO29DDeiEP7YI+6LJOHox3jVy3zsl4+D6VQJHTJJveazmdcY7/26EwIIoavfIhjqZu5IYOxv/N5J0tbpGxZm6O4W9IIy5Md/I6riocQsCOuk65krVVWGJ/+hF3PtfrGh9cRXGfHLpeAk+cGFhlYhCiGkufH1Z1eM7/n0vg98+qvdGzXfvU/KhaS7aVD+RzyzGmF05ucv2KPhuXEA23yLmzgiUnav3hSFfYdE6fGWVFci1rOldvqq11/Z3zCP7rlnUyr5cv4p5Ux+Rq6aS+MBTuHZj/9jBpZ24nbn6teclg9gzAzWPTf7frQTeOB1Hh+z5nSiaWl9La9lFcr2Ctk85sfOPwTc7gvr9swo/D39S2Wn+qjGiA56PP0fqb4fLXxhljKgRvSwGHB280wKFXhjPvDCGp7ytKLuwesHaVaDjS8vI9ndQVizKd+sCuYrVPy2j7Td7W7K3EiZWnA1zb5yPWWVOjbW0reJ32oIoVMlYtaCO84XTy4YbHc28dDKhNp34Z5o3jl31anjuWV72ftSkjePXc8MHSt6mPStQ5QoTJ1aP5rl2Fia5XsH44/uJtnmxbu4DzSVy9UyGfrr1uNfw/tsejGumgeYSuO1UzNtrN06ciNi9Gwm+qhsnpGOe3YkW9DS8p6IR8Q4Quvv0/DyA6jFvLAjjua8f882PN+V7Oyz6+aVk+4sNWUrGQdHVQqwPD8NzokfPtS0a7/y7EQKndMA9yxjpJ63ZCspljzT8PUm6WqmRcZb40FMV9Ybk1SvqrkvUNySM6hd7uVRWgNwKab66Py6cat1kloN7w9Nos4No8yOYb811tfO5U7Hyl9YHLbQ/78fxatgXdeOENNyVBwuXyL73Sfz9k7Dza1e7JasWmXuSeD71PMpkP54zOsi+qhsAVdOB8gpLsL+L7LtmFX4O/GmAxL9swdibQvVphC+dinPDfGyfgjU7RNvtpzJ415q633891L5wofKnPvrSMY91UhbaxiGcfEuBb2a45ko51fjmRnAm5TIqJeM0PDOyEwZqSeHo+CcouOkqraOjjBFzfwbtpmfxvWE6xmsn505wi+OQh/5jJ6FDBvhVtGtmYM4MlMVQqfYPLSpkqqoF2s+2k3xwN/aggdbuJfKOOWTfkOuNMK6cSnh9jMQfWm+BgYkUZ8PU72/Fc9V0bBWcbl9hToFvTwbbLL2ni/vf+6tew8k6aI6DrSno21MofzqI8eQBzD0ZAhd2w0cX5r7/53TinRnG2JloynuJ3LQYI5+pev6wn+R9mwvDDELnd8NtSwrvz6kxLmOixGopRVOwz8sNzdFXDqC4kPh/uwndOB/bo2C9cRrUUWFxXkrj+90+spf3Yp7Zjv+U9qo9jCfKtV303+4rDB3z9UUqG2JGqRHxDmAlc2muPmihPnoAY+UA2RcG8c2PoN6+BGeyDyeiE71mJkO/3N7Q9zAsdMHkQqxqu9JkP/d8obfdOzOM986l2DNqFyChNfLvRnBT9gkNtdIcB7cJ5U9JV8s1I85GU5eovwT+Mhe/9jG0aK6VNvTJJZhnd6JaVF2txU3bpGt09WW2xWBbDO+uFFq+MOrogK2gfXU98dJJi18DvGrZeEdrIEvq0f348hWWo6WezrUehy0H8hWWiudTgDtPLfysf2MTh3+3u/Czk7WJ/XYXntWH8X7/nFxr86u6CfxbG+mNjRsCqM8tFiSd3anjHq/syUL+sfUFYahRkPQvbkNxXFBV1Mk+9GUdWJf24uQrE/pDjZ8Yag1ksa54FC2/rrj/h+fiRHR8W5LEb19dcbwTN2u2RIw2RjLrBtF6gjBcYSllOCT/mCuotfV3wszqGaNvbgTj6qlArgBof3AVyZLP2x40GLz3BcKb4sXK8ycW4f5xb8s1ZEykOBsW/91uyH9no+/rw8nHSfymVXWPKXZth9SbHkNRIH3U0KLEw3uJQuFv6zulrWkZKwtyvYaqBfGvrC/7XiRXHkR92xMEvncOTo8P7VDle5tIsVoqfOnUQiNF9oEdQK5yoP3pIPZrJ+N0eAic2lHXELfYtzcRfE0Ptk/B+6lTyby9+ipjJ8raVhzOofaFocEVlkbEO0D8xqfwtPtIHzXPJv38EfSbnsHzs/MBUE9pb9CTV1KXthd6FOwvry8bGmzsTGC8+y+0f2Yp2Vd1o1QpR7RK/t0ImW0xtCtXoIRGVhRNDxnl8wcbRNLVkvfRgnEmFZZ6OW4hYJVMLrlRXLcxE9NtBW5eRWJDlT9yEyZnBfuihS5n76YEQyVBWMrcnST40D6MN+SWO/ScM6mxgTgjWLzXvuMviamULJup9NZugVLuWV74vwNlXZnapgSx+zaP6DHrZjjYRu5uqp27t206J2WM+C6eUlghRf35jrICYKnEw3tp/1+zyU7z4+gQmB8Zu0UA6jXR4qyBnLSF3uUjevk0lGlB3Mk+UFWIGSh7i5+DNivcvGfYl4U5uRXaou+dT+q/9mLuTRUKJE7aIvnOlYTfNIPUY4cqzp9QsVpCfVNucQd90CJestpc6qfb0PONEZ6315h8fxQna6P88xa4uQ+zx0v0ihkNndtg70gWWsrVJsbKaCkuOEmL0OXT0WeGcHoDaD4FJ2HBziR2frsGq5nLx+4oVlB8182FH20lvTkOVjEdH7xrDeHHe6qO1GiZ/LtB7JQFI5iLdTKYCOlqK8aZVFhagOfrG4hVK4g2635nTipk8MaCMKEHL655rOHXGR7vqy6pHMc5GspgMZFSSzesqqXkGCU58gRO+0Ll/honi7GOEfWMYguj+5aZhK6eXvPYbMkSp57TOluuEChxVp0a1Gn//Gmkl7dz3BkHdXxsJ8p5aA+c3wmAce0M9Gtn5DImW0ExbdyUjWfdEOYvd1SdDD2RYnWYp8NbmOCqxEwiV84oe901XWyPMqLJ9/H/3EX0bbMwe7w4N8xHbeD+UErpd+ZQc1cJG432Dy3CvHIqjl5sYCh+csURCUdv2NlI6b8O4LMW5lqk+zugv5/hZhHNdFGSNtqeFNa/7ya1prIy2ir5dyOoQZ3wZ5eidtaeq1ON+2KCoa+sa9JTjc5ESVdbMc6kwtICrBNYGnpUZgbLfixdU79SSbdrrLGtINa2OFyQ+0Jp02vvJjtM7fUV/m9uqd2Nmr70UVAVQv2T4NPFcZrqeZPgJChIVjPWMWJNKbYw2j4FfMeKkSK3QSsQNZLEWSVFUwl980zSs4tpgW9PBnt3CiVp4Xb6cPrCx0kbGiO58iDh722F6+aUrV6H5uJqKvhVzAu74MIuoo8cIHb32rLzJ1KsDvO/dXahIG3ODMBH+6ofOILJ9wDmXWvg3n5sn0LkxgXYzzRmxTRtXrAw7NJ8oTUrgdEPLyT7xqmFn/VBC+3FOM6QiRvSUeeFMSo2lG4860gWzydXo965tGIzWtujQLuO1R6FU5YQfWk+setWlvW+tEr+3QiBpR2YZ1dZafV45odQ79k4sqXKx8BESldbMc6kwjIKtSYrjyWlxjMoau1nU/cUN+gJ/OUQxopj78jtOgpuzGCwweOSnZLWTfe0NvjFsY+3+4qrWWW3HidTtBySTx7Ed9OzqN85GzQX8zVTCDz8EunVld2fzdIKm4sqavWxvqp2jFbEgSzkM2/tvi0wdOy2ItdycQ5kSVTZzG68vRzibKSCF3Rj5TNVbcAge9Mq0vsrN+4K/OHVY/I8iV9sh19sJ7BsEp7X9qJ3eXF8Km5Qw5pcXP3QfPVk/A8eNWl8AsXqMOd1PUBu/DnZ6gWA4c+k3sn3AOkNQ0SfOoJ5dgfGZb149mSOvZt9ndTlnYXrGC047Ej1aphvnAbkejHsTz9fvhFgXugnF+D0+Cp+32jp54/A1SvwzgwTvGwazuwQakDF8WooHZ5Cxcns8dL2nnkMfbc4vLRV8u9GyKw5QvC5IdS2kRVF3RcTpFussgITK11txTiTCssJcPOtHc44fXplKw9NqZ64qgujNc8v3TvHsRmT3YmrSa8dxJdfWcs6pxO9w1dz07HgWV2FRFwftHKT7uqQ3R4nev82zPfMBkD9/ClwzePlLVZNoOavb0Wb2Od7DErJ+9N6g1Blx3V3drDid4VzNsUL+/2ocYvYOMVII0zkODtRWv+kwsTf7CdWY1bJVP1zaqchjdT2zvlwWQ+Z2/9GevWhqhW96JeWFzb+9C+fVJaxTqRYhdwy3IWW93s3kawxdjx6x2mYF3aNaPI9QOor6/H8/BWgudjvnjPq5w0sasM8O9eDqR4xm75x5Inwn95RaANWf7ydRJUYcxVQOprfwxLs70L57BKUezeTeGQfxn0vVBwTuXom1o3zAbBPK18AoFXy70awUxbxTzwz3o/RMBMpXW3FOGveQM0JTI0XW/ACiyvH6ymaSuiSqbTfsBC9o/GtNa7topm55Nc9c1LF63qXDzvfQldNZsNgbhI3kH3FpNxa6DVoQZ3o2+cRuesMAosaOzbRGTLQf12c+Bm841So0jOktnlxby3Z+O/rG0Z0n9i/bsWXby1wQjrtN1dfYa2R3PzCDHT5UKr0smhBD23XzCL69nm51TgazNpZXA1LvahytbjQ+d35/QiqM/9SXErb+sgCtGDtipe3J0D0Y0vo/OxpqG3Nz/BHaiLH2QkLFJN+/9LKFZH0bj/KP54+Jo+iXDIZo8uL96vL0Nqrx49bsuKae1QjwESKVQD/tfn5KrZC8uHa80yyP95W+L/n7fVXPKwjWbwP7ARG3+gWWDYJtSROnC+sPcbR40cNFt+oWyUfUzSFji8tK+y11kyeC7txIjr2bUsILKheeI2XVFJLnx1aJ/8WVUygdLUV40x6WE6AuT4OV+X+r92xlMDd63DTFvrySShnTcI9JYrtUcgCIU1h6Fu5TcpUr4b/9HYUv446PVgYo+zp7yAULB8fmF07eMyWKv1AFnuaH6tdp/2eMzH+ZSt23MTX34lz3dyyMYu+8ybBUy7G3lwh1klZ6N/dgvXBebkDvr6ctt/sIfXgLsy9KTS/jv+MdjxXTSd7RidmfplWb9Yh/b9r74Z6IhLf20zgsqm4QRXz1DbCPzgX66sbyGwYQtVV/P2TUG5fXFwPfWuKwZJ9abR2L74l7WhzQoXPM3zhFOxD2bIWx+Rn/ob+g3NBc8m+vofoC3GyawbJbm/OeGt9SwJzem41oshdy8h+dzNqWMd7bhfK8k6y80OFSZ/BdYOF1o9GxUhmV4JAvlfBvLibtqFFGA/tBU3B+7qphRU9ABSvSvCsSWTWDuHk94ZJPX2I9meOkO3vwPWr+H5+AfoPtpJ6Yj/WQBZPh5fART24V/RizQ5hAiYQfLqLxDEKWeNlosWZ3uHDd0YHqCp6X6QwOTJ0cQ92omQIkWmTfnKgYkdld+0QvDq30pT74QW0zQ5jPHYAtc2DfkkPxgXdZXsK2XPDBPu7yGwcwkmWDLnSVYKnd6KUxKaV3+xOiXgIXTil7L7mjkTFDtVGfsii1a4T+OkFqN98geRjB3ObD+oqof5JOB9ZULz+0+Ubf06UWFV9Gr4lHWTPyjVCeY9kUc/pwt6fJbOlfJiVd2YIvTeAknWxfbnJ98HzJ5N57jCO4RBc3I6jKICLsjhKaGAKbswk+fxhFBdiP3yR4BW9FRsNl/JM8ePMKc75CizrxE1YKNODeGaEcE5vx+wLFVqUfSsPM/h8c4bZjTbes88fLhR2rPM7af/MUozf7wMHvGdNwnhDL1l/sbBpRzwEz5uMtTVZPiG5AfFeGMWtufDtM2n75S6Sv96FdTDX2BFY3Ibvhr7CzmnqmvI9c1op/55oJF0tasU4U3qnzRqzlehDD1yI0+FBM10S/+PRk/YaiqYQ/s45hbGKNdkK7i3PFLrZ2v9xWdnutsfi2Z3JTbarIXR2F87dp9X9zNXea/TuZXVPeFNSDs4tqysyzkbwzY6gf205TtuxJ6Lp25OkPrG6bJngyK8uwmqvnumq/7CxsOcIQPRdczHfMbvsmOyVK+paYWekvFOD6N89u7AsYC1q0iL9licKkwcbGSPRjy3BvLx2T9vR9A1x4h95uvhsIQ++H54LnfUNa/PszpD44FOFSs8x79Xjx/OT3J4HnlWDxBq8+3Y1EynO2n7+ironCOtPHq7cUdmrEvrZhcf8LJSUg+vTyjJYbVOCxIeeKvw8vF9EvVQLkq9/pOx37fefX7W3T7UqewB8W1MMvv+vlcdOgFhtv+dMsqfUGC7yoVWk88M6Q+d049y1tOphnkcOoGRsjMt6q76ufqM4xCx8cQ/255YUXku99pHCvjRqUMf3m4vqfnbf7/YxeO8LTRsCOep4ByJ3nYF1TmftE20FJWvjBotp9tHx2oh4b/voIowrp1Y91lHKNx9WMg7GO/5StWGqWfn3eKTNrULS1UqtUk4EGRJ2QlzbJfGBJ/GsGsxNijyKZ3cG3/07yF77WNmYQHtb5dJxNb1UOfaxVPKpATz3bqm8v63g+Y89KJ8qr+E6A5XXi316Neqd61CPsXSrtjGO9qWNpK9e0bQgzG6Pk/6fj+N5qkbrnK3g/fVe4tc/Wbmnya7qn6lqgRsrT+Rj92/Ft7I4IUxJObg1NvgcLWNvCvO9f0XZly50qxbYCt71MfSvvUDqTY+XrXTSyBiJ3bsR30OVq1UpGQf9ay+g/6p8bLy6s3yPEidpknrrY+g/2VE1ziH3OfufOAy3rCZ23cq6CoDjZSLFmbt1BJuN7aqyWabhYHx0Ffr2KssEW+B9+ACpN6/A8+fy3ZzVozbedEYSr4ATq5wQ7xzIFu47vMcVlGeqqgW+B/cw+OGnjj49d+wEiFX3xep/UyXj4BjFwo25L1XzPSp70zhbq/9NNNOFkrhO/PkltE3Fe5Zuoulk7GPmCwBq0kZfM4Rz/dMMfmNDU+drjTregeSda/CuGKh8wVbQNsax3vkE6rc2lb92uPy73Yh4Z08xnS39jB2dskKsZ9UgxvV/rdmL3ir590Qi6WqlVooz6WE5wWuU8k4J4ZkVwDqQJbs7ObYTbVUF7/Qg+pQA9qEsmW3xE9q9WQt68C6Mos8IYg9kMXcmsfalyyf4jwVVIbAwir6kHcVyyf7tSNOGbY0VVwHfvCh6hwdrTxrjpXRTdumtyasSmB1GafNi7EpgHaeiU4ve7ce3IIra4cPak8bcnSgMYxjxtca7FW8CxtmJ8kwL4e+Lglchu3awMHR0rKhBncCyTjKrj2CnTLR2L945UfQ2D67rYu5Kkt05snR1QsVqE6kBHd+iNqyDmbId16vSVTSvhm3ZTdmsdqzoHb5cbHT7MTfGyGyNjWl67CoQOrMLa08KY28K1avh64uid/txXRf7QBpjRzK3oWKdGpl/T+R4H0sTMV0d73KizGFpAGN/surGO2PCcTF2JgvjF090yqCdMnPzKMZ7KVbHJb1hCMZwk8RmU1wwtsQYt10fDKcwnGQ0rIOZEy70tZwJGGcnytyTxNwzTukXubHSySeKS2bagwbp1VVawkdgQsVqEzlpq/7lty0Hu0VXvRsJ60gW68mDxz+wSRQXUiXzBRzDJj3KJbZbJv8WBRMxXR3vOJMhYUIIIYQQQoiWNS49LLZHIfDwJbkHiJsk3voYrj2yLtlWuYYQoj6+uRE8956JrQ+3k8h3TbQmiVXxciLxLk4GY9rDor1Y0j2muaC5OGEddwS7gbfKNYQQI6PqSm6fg/x3bpiyfvTD1YRoJIlV8XIi8S5OBmM66R5y+xkoSrFiYMXNEU9Sb5VrCCFGRg3oqP7iko9u1smtCy9Ei5FYFZnyeAQAAACmSURBVC8nEu+i1Y15hUUIIYQQQggh6iWT7oUQQgghhBAtSyosQgghhBBCiJYlFRYhhBBCCCFEy5IKixBCCCGEEKJlSYVFCCGEEEII0bKkwiKEEEIIIYRoWVJhEUIIIYQQQrQsqbAIIYQQQgghWpZUWIQQQgghhBAtSyosQgghhBBCiJYlFRYhhBBCCCFEy5IKixBCCCGEEKJlSYVFCCGEEEII0bL+P1vcWinlCtI9AAAAAElFTkSuQmCC;" vertex="1" parent="1">
          <mxGeometry x="73" y="541" width="672" height="43.03" as="geometry" />
        </mxCell>
        <mxCell id="xkHoxEHxuW4sq9BMO9kq-18" style="edgeStyle=orthogonalEdgeStyle;rounded=0;orthogonalLoop=1;jettySize=auto;html=1;" edge="1" parent="1" source="xkHoxEHxuW4sq9BMO9kq-5" target="xkHoxEHxuW4sq9BMO9kq-9">
          <mxGeometry relative="1" as="geometry" />
        </mxCell>
        <mxCell id="xkHoxEHxuW4sq9BMO9kq-5" value="true" style="rounded=1;whiteSpace=wrap;html=1;" vertex="1" parent="1">
          <mxGeometry x="434" y="280" width="120" height="60" as="geometry" />
        </mxCell>
        <mxCell id="xkHoxEHxuW4sq9BMO9kq-17" style="edgeStyle=orthogonalEdgeStyle;rounded=0;orthogonalLoop=1;jettySize=auto;html=1;exitX=0.5;exitY=1;exitDx=0;exitDy=0;" edge="1" parent="1" source="xkHoxEHxuW4sq9BMO9kq-6" target="xkHoxEHxuW4sq9BMO9kq-9">
          <mxGeometry relative="1" as="geometry" />
        </mxCell>
        <mxCell id="xkHoxEHxuW4sq9BMO9kq-6" value="false" style="rounded=1;whiteSpace=wrap;html=1;" vertex="1" parent="1">
          <mxGeometry x="274" y="280" width="120" height="60" as="geometry" />
        </mxCell>
      </root>
    </mxGraphModel>
  </diagram>
</mxfile>
